<svg xmlns="http://www.w3.org/2000/svg" width="20.46" height="20.46" viewBox="0 0 20.46 20.46">
  <path id="vector-square" d="M20.46,5.115V1.279A1.279,1.279,0,0,0,19.182,0H15.345a1.279,1.279,0,0,0-1.279,1.279H6.394A1.279,1.279,0,0,0,5.115,0H1.279A1.279,1.279,0,0,0,0,1.279V5.115A1.279,1.279,0,0,0,1.279,6.394v7.673A1.279,1.279,0,0,0,0,15.345v3.836A1.279,1.279,0,0,0,1.279,20.46H5.115a1.279,1.279,0,0,0,1.279-1.279h7.673a1.279,1.279,0,0,0,1.279,1.279h3.836a1.279,1.279,0,0,0,1.279-1.279V15.345a1.279,1.279,0,0,0-1.279-1.279V6.394A1.279,1.279,0,0,0,20.46,5.115ZM16.624,2.558H17.9V3.836H16.624Zm-14.067,0H3.836V3.836H2.558ZM3.836,17.9H2.558V16.624H3.836Zm14.067,0H16.624V16.624H17.9Zm-1.279-3.836H15.345a1.279,1.279,0,0,0-1.279,1.279v1.279H6.394V15.345a1.279,1.279,0,0,0-1.279-1.279H3.836V6.394H5.115A1.279,1.279,0,0,0,6.394,5.115V3.836h7.673V5.115a1.279,1.279,0,0,0,1.279,1.279h1.279Z"/>
</svg>
