<svg xmlns="http://www.w3.org/2000/svg" xmlns:xlink="http://www.w3.org/1999/xlink" viewBox="0 0 233.96 27.86"><defs><style>.cls-1{fill:url(#linear-gradient);}.cls-2{fill:url(#linear-gradient-2);}.cls-3{fill:url(#linear-gradient-3);}.cls-4{fill:url(#linear-gradient-4);}</style><linearGradient id="linear-gradient" x1="34.6" y1="64.83" x2="206.2" y2="-34.25" gradientUnits="userSpaceOnUse"><stop offset="0.27" stop-color="#573008"/><stop offset="0.38" stop-color="#5b340b"/><stop offset="0.49" stop-color="#674014"/><stop offset="0.6" stop-color="#7b5424"/><stop offset="0.7" stop-color="#967139"/><stop offset="0.81" stop-color="#ba9555"/><stop offset="1" stop-color="#8c6231"/></linearGradient><linearGradient id="linear-gradient-2" x1="31.27" y1="-43.43" x2="208.09" y2="58.65" gradientUnits="userSpaceOnUse"><stop offset="0" stop-color="#be894a"/><stop offset="0.27" stop-color="#734715"/><stop offset="0.34" stop-color="#774b19"/><stop offset="0.42" stop-color="#825724"/><stop offset="0.49" stop-color="#956b37"/><stop offset="0.49" stop-color="#976e39"/><stop offset="0.55" stop-color="#a07944"/><stop offset="0.64" stop-color="#b69661"/><stop offset="0.75" stop-color="#dbc590"/><stop offset="0.78" stop-color="#e6d39e"/><stop offset="0.83" stop-color="#cab17c"/><stop offset="0.87" stop-color="#af8f5a"/><stop offset="0.92" stop-color="#9c7742"/><stop offset="0.96" stop-color="#906833"/><stop offset="1" stop-color="#8c632e"/></linearGradient><linearGradient id="linear-gradient-3" y1="18.89" x2="148.99" y2="18.89" gradientUnits="userSpaceOnUse"><stop offset="0.04" stop-color="#111"/><stop offset="0.17" stop-color="#303030"/><stop offset="0.35" stop-color="#656463"/><stop offset="0.47" stop-color="#585756"/><stop offset="0.68" stop-color="#363635"/><stop offset="0.84" stop-color="#1a1a1a"/></linearGradient><linearGradient id="linear-gradient-4" x1="36.43" y1="46.69" x2="107.11" y2="-24" gradientUnits="userSpaceOnUse"><stop offset="0.13" stop-color="#383736"/><stop offset="0.15" stop-color="#3f3d3c"/><stop offset="0.19" stop-color="#514e4d"/><stop offset="0.23" stop-color="#6f6a68"/><stop offset="0.28" stop-color="#99918e"/><stop offset="0.33" stop-color="#cec3bf"/><stop offset="0.33" stop-color="#cfc4c0"/><stop offset="0.42" stop-color="#aea6a2"/><stop offset="0.55" stop-color="#817c7a"/><stop offset="0.68" stop-color="#5e5b5a"/><stop offset="0.8" stop-color="#454343"/><stop offset="0.91" stop-color="#353535"/><stop offset="1" stop-color="#303030"/></linearGradient></defs><title>Ativo 2</title><g id="Camada_2" data-name="Camada 2"><g id="objects"><path class="cls-1" d="M58.9,22.24c-14.87-.12-27-2-37.31-5.19A100,100,0,0,1,2.31,8.91c.36.26.83.57,1.41.95a65.19,65.19,0,0,0,6.93,3.84c1.55.74,3.28,1.51,5.19,2.29.94.38,1.92.76,2.95,1.13h0c1.07.4,2.18.79,3.34,1.17a122.43,122.43,0,0,0,15.58,4,152.62,152.62,0,0,0,18.95,2.37c1.69.09,3.4.2,5.16.25s3.55.11,5.29.1h2.31l.37,0,2.7-.09h.31c-3.88-.69-7.75-1.45-11.59-2.21ZM122,14.64c-10.06,2.17-19.34,3.82-27.94,5,1,.14,2,.28,3,.4,2.68.33,5.31.52,7.9.63l1.92.06h1.9l3.83,0h1.31c3.26-.48,6.51-1,9.76-1.47,7.32-1.11,14.58-2.18,21.72-3l3.59-.41c6.59-.7,13.1-1.18,19.26-1.42l5.42-.13,1.33,0h1.19l2.54,0q5.06.15,9.86.54c6.39.55,12.41,1.38,17.91,2.38s10.51,2.13,14.89,3.27,8.15,2.29,11.22,3.29l1.35.45V13.84C213.49,8.74,173.63,3.54,122,14.64Z"/><path class="cls-2" d="M40.09,18.79l-1.86-.17c-3.14-.28-6.13-.68-8.95-1.15-.61-.06-1.23-.1-1.84-.15s-1.29-.08-1.93-.11-1.23-.08-1.94-.1c.71,0,1.3.06,1.94.1s1.26.05,1.93.11,1.23.09,1.84.15q-3.47-.59-6.57-1.28-3.42-.8-6.35-1.67t-5.31-1.76a66.79,66.79,0,0,1-7.2-3.13C2.24,8.79,1.43,8.25,1.43,8.25s.29.24.88.66a100,100,0,0,0,19.28,8.14C31.9,20.19,44,22.12,58.9,22.24c-5.07-1-10.08-2-15-2.83C42.63,19.19,41.36,19,40.09,18.79Zm185-15.91c-4.88-.81-10.4-1.55-16.44-2.08S196.07,0,189.12,0c-3.47,0-7,.16-10.67.38l-2.74.2L174.24.7l-1.33.12-5.4.48c-7.55.78-15.13,1.89-22.78,3.27s-15.32,3-22.91,4.69S106.69,12.58,99.25,14C93,15.2,86.76,16.26,80.67,17.06c4.54,1.06,9,2,13.42,2.61,8.6-1.21,17.88-2.87,27.94-5,51.6-11.11,91.46-5.9,111.93-.81V4.53C231.31,4,228.36,3.41,225.11,2.88Z"/><path class="cls-3" d="M10.65,13.69A65.38,65.38,0,0,1,4,10.05q-2,.07-4,.21v9.13a115.13,115.13,0,0,1,12.34-1.86c2.1-.21,4.25-.33,6.45-.41-1-.37-2-.75-2.95-1.13C13.93,15.2,12.2,14.44,10.65,13.69Zm136.54,2.39a120.65,120.65,0,0,1-58.81,7.85A136.47,136.47,0,0,1,63.67,18.8c-1.24-.38-2.48-.77-3.7-1.18A162,162,0,0,0,4.64,10a67.15,67.15,0,0,0,6.41,2.74q2.38.87,5.31,1.76t6.35,1.67q3.11.69,6.57,1.28c3.52.3,7.13.75,10.81,1.32,1.27.19,2.54.4,3.82.62,5.65.95,11.44,2.13,17.3,3.29,3.84.76,7.71,1.51,11.59,2.21,2,.36,4,.71,6.08,1a155.19,155.19,0,0,0,17.57,1.83c2.88.14,5.73.12,8.52,0l2.08-.1,2-.16,1.05-.09,1-.13L113,27c5.2-.74,10-1.67,14.45-2.74a97.82,97.82,0,0,0,11.86-3.64A54.61,54.61,0,0,0,148,16.53c.36-.22.7-.43,1-.65Z"/><path class="cls-4" d="M146.44,16.16l-1,.13a57,57,0,0,1-6.8,2,92.81,92.81,0,0,1-11.84,1.86c-4,.37-8.31.6-12.84.64h-7L105,20.7c-2.59-.11-5.22-.3-7.9-.63a150.43,150.43,0,0,1-16.39-3l-.06,0c-5.59-1.32-11.26-2.88-17-4.49S52.15,9.3,46.34,7.85,34.71,5.12,28.9,4.25c-.71-.11-1.47-.21-2.21-.3s-1.51-.21-2.17-.27l-2-.23-2.23-.22c-2.84-.27-5.64-.46-8.36-.52C7.74,2.6,3.76,2.71,0,3v7.31c1.34-.09,2.69-.16,4-.21l-.3-.19A26.19,26.19,0,0,1,1.43,8.25s.81.54,2.42,1.38l.79.39A162,162,0,0,1,60,17.62c1.22.41,2.46.8,3.7,1.18a136.47,136.47,0,0,0,24.71,5.13,120.65,120.65,0,0,0,58.81-7.85Z"/></g></g></svg>