<?xml version="1.0" encoding="utf-8"?>
<!-- Generator: Adobe Illustrator 22.0.1, SVG Export Plug-In . SVG Version: 6.00 Build 0)  -->
<svg version="1.1" id="Camada_1" xmlns="http://www.w3.org/2000/svg" xmlns:xlink="http://www.w3.org/1999/xlink" x="0px" y="0px"
	 width="16.9px" height="18.6px" viewBox="0 0 16.9 18.6" style="enable-background:new 0 0 16.9 18.6;" xml:space="preserve">

<g transform="translate(-1697.435 -762.534)">
	<g>
		<path class="st0" d="M1713.4,762.5h1v7.7c-1.8,0-3.2-1.4-3.2-3.2v-2.3C1711.1,763.5,1712.1,762.5,1713.4,762.5z"/>
	</g>
	<g>
		<path class="st0" d="M1711.1,765.4h-7.1c-0.7,0-1.3,0.6-1.3,1.3v2.3h1.3v-2.3h7.1L1711.1,765.4z"/>
	</g>
	<g>
		<path class="st1" d="M1703.7,768.3h-0.6c-0.5,0-1,0.8-1,1.3v0.6h2.6v-0.6C1704.7,769.1,1704.3,768.3,1703.7,768.3L1703.7,768.3z"
			/>
		<path class="st0" d="M1705.2,770.7h-3.6v-1.1c0-0.7,0.6-1.8,1.5-1.8h0.6c0.9,0,1.5,1.1,1.5,1.8V770.7z M1702.6,769.7h1.6v-0.1
			c0-0.4-0.3-0.8-0.5-0.8h-0.6c-0.2,0-0.5,0.4-0.5,0.8V769.7z"/>
	</g>
	<g>
		<path class="st0" d="M1702.4,769.6h1.9c2.1,0,3.9,1.7,3.9,3.9c0,0,0,0,0,0h-9.6C1698.6,771.3,1700.3,769.6,1702.4,769.6
			C1702.4,769.6,1702.4,769.6,1702.4,769.6z"/>
	</g>
	<g>
		<path class="st0" d="M1698.5,775.2c-0.6,0-1.1-0.5-1.1-1.1c0-0.6,0.5-1.2,1.1-1.2h9.7c0.6-0.1,1.1,0.5,1.2,1.1
			c0,0.6-0.5,1.2-1.1,1.2L1698.5,775.2C1698.6,775.2,1698.5,775.2,1698.5,775.2z M1698.5,774c-0.1,0-0.1,0.1-0.1,0.1
			c0,0.1,0.1,0.1,0.1,0.1h9.7c0.1,0,0.2-0.1,0.2-0.1c0-0.1-0.1-0.1-0.1-0.1c0,0,0,0,0,0H1698.5z"/>
	</g>
	<g>
		<path class="st0" d="M1698.9,776.7c-0.2,0-0.3-0.1-0.3-0.3l0,0V776c0-0.2,0.1-0.3,0.3-0.3c0.2,0,0.3,0.1,0.3,0.3v0.3
			C1699.2,776.5,1699.1,776.7,1698.9,776.7L1698.9,776.7L1698.9,776.7z"/>
	</g>
	<g>
		<path class="st0" d="M1700.2,778.3c-0.2,0-0.3-0.1-0.3-0.3l0,0V776c0-0.2,0.1-0.3,0.3-0.3c0.2,0,0.3,0.1,0.3,0.3v1.9
			C1700.5,778.1,1700.4,778.3,1700.2,778.3L1700.2,778.3L1700.2,778.3z"/>
	</g>
	<g>
		<path class="st0" d="M1701.5,776.7c-0.2,0-0.3-0.1-0.3-0.3l0,0V776c0-0.2,0.1-0.3,0.3-0.3c0.2,0,0.3,0.1,0.3,0.3v0.3
			C1701.8,776.5,1701.6,776.7,1701.5,776.7L1701.5,776.7L1701.5,776.7z"/>
	</g>
	<g>
		<path class="st0" d="M1702.8,778.3c-0.2,0-0.3-0.1-0.3-0.3v0V776c0-0.2,0.1-0.3,0.3-0.3c0.2,0,0.3,0.1,0.3,0.3v1.9
			C1703.1,778.1,1702.9,778.3,1702.8,778.3L1702.8,778.3L1702.8,778.3z"/>
	</g>
	<g>
		<path class="st0" d="M1704,776.7c-0.2,0-0.3-0.1-0.3-0.3l0,0V776c0-0.2,0.1-0.3,0.3-0.3c0.2,0,0.3,0.1,0.3,0.3v0.3
			C1704.4,776.5,1704.2,776.7,1704,776.7L1704,776.7L1704,776.7z"/>
	</g>
	<g>
		<path class="st0" d="M1705.3,778.3c-0.2,0-0.3-0.1-0.3-0.3v0V776c0-0.2,0.1-0.3,0.3-0.3c0.2,0,0.3,0.1,0.3,0.3v1.9
			C1705.6,778.1,1705.5,778.3,1705.3,778.3L1705.3,778.3L1705.3,778.3z"/>
	</g>
	<g>
		<path class="st0" d="M1706.6,776.7c-0.2,0-0.3-0.1-0.3-0.3l0,0V776c0-0.2,0.1-0.3,0.3-0.3c0.2,0,0.3,0.1,0.3,0.3v0.3
			C1706.9,776.5,1706.8,776.7,1706.6,776.7L1706.6,776.7L1706.6,776.7z"/>
	</g>
	<g>
		<path class="st0" d="M1700.2,780.5c-0.2,0-0.3-0.1-0.3-0.3v-1c0-0.2,0.1-0.3,0.3-0.3c0.2,0,0.3,0.1,0.3,0.3v1
			C1700.5,780.4,1700.4,780.5,1700.2,780.5L1700.2,780.5z"/>
	</g>
	<g>
		<path class="st0" d="M1702.8,780.5c-0.2,0-0.3-0.1-0.3-0.3v-1c0-0.2,0.1-0.3,0.3-0.3c0.2,0,0.3,0.1,0.3,0.3v1
			C1703.1,780.4,1702.9,780.5,1702.8,780.5L1702.8,780.5z"/>
	</g>
	<g>
		<path class="st0" d="M1705.3,780.5c-0.2,0-0.3-0.1-0.3-0.3v-1c0-0.2,0.1-0.3,0.3-0.3c0.2,0,0.3,0.1,0.3,0.3v1
			C1705.6,780.4,1705.5,780.5,1705.3,780.5L1705.3,780.5z"/>
	</g>
	<g>
		<path class="st0" d="M1707.9,780.5c-0.2,0-0.3-0.1-0.3-0.3v-1c0-0.2,0.1-0.3,0.3-0.3c0.2,0,0.3,0.1,0.3,0.3v1
			C1708.2,780.4,1708.1,780.5,1707.9,780.5L1707.9,780.5z"/>
	</g>
	<g>
		<path class="st0" d="M1707.9,778.3c-0.2,0-0.3-0.1-0.3-0.3v0V776c0-0.2,0.1-0.3,0.3-0.3c0.2,0,0.3,0.1,0.3,0.3v1.9
			C1708.2,778.1,1708.1,778.3,1707.9,778.3L1707.9,778.3L1707.9,778.3z"/>
	</g>
	<g>
		<path class="st0" d="M1698.9,779.9c-0.2,0-0.3-0.1-0.3-0.3v-1.9c0-0.2,0.1-0.3,0.3-0.3c0.2,0,0.3,0.1,0.3,0.3l0,0v1.9
			C1699.2,779.7,1699.1,779.9,1698.9,779.9L1698.9,779.9z"/>
	</g>
	<g>
		<path class="st0" d="M1701.5,779.9c-0.2,0-0.3-0.1-0.3-0.3v-1.9c0-0.2,0.1-0.3,0.3-0.3c0.2,0,0.3,0.1,0.3,0.3l0,0v1.9
			C1701.8,779.7,1701.6,779.9,1701.5,779.9L1701.5,779.9z"/>
	</g>
	<g>
		<path class="st0" d="M1704,779.9c-0.2,0-0.3-0.1-0.3-0.3v-1.9c0-0.2,0.1-0.3,0.3-0.3c0.2,0,0.3,0.1,0.3,0.3l0,0v1.9
			C1704.4,779.7,1704.2,779.9,1704,779.9L1704,779.9z"/>
	</g>
	<g>
		<path class="st0" d="M1706.6,779.9c-0.2,0-0.3-0.1-0.3-0.3v-1.9c0-0.2,0.1-0.3,0.3-0.3c0.2,0,0.3,0.1,0.3,0.3l0,0v1.9
			C1706.9,779.7,1706.8,779.9,1706.6,779.9L1706.6,779.9z"/>
	</g>
	<g>
		<path class="st0" d="M1698.9,781.2c-0.2,0-0.3-0.1-0.3-0.3c0,0,0,0,0,0c0,0,0-0.1,0-0.1c0,0,0-0.1,0.1-0.1c0,0,0,0,0,0
			c0,0,0,0,0.1,0c0,0,0,0,0.1,0c0.1,0,0.1,0,0.2,0c0,0,0.1,0,0.1,0.1c0,0,0.1,0.1,0.1,0.1c0.1,0.2,0,0.3-0.2,0.4
			C1699,781.2,1698.9,781.2,1698.9,781.2L1698.9,781.2z"/>
	</g>
	<g>
		<path class="st0" d="M1701.5,781.2c0,0-0.1,0-0.1,0c0,0-0.1,0-0.1-0.1c-0.1-0.1-0.1-0.2-0.1-0.3c0,0,0-0.1,0.1-0.1
			c0.1-0.1,0.3-0.1,0.5,0c0,0,0.1,0.1,0.1,0.1c0.1,0.2,0,0.3-0.2,0.4C1701.6,781.2,1701.5,781.2,1701.5,781.2L1701.5,781.2z"/>
	</g>
	<g>
		<path class="st0" d="M1704,781.2c0,0-0.1,0-0.1,0c0,0-0.1,0-0.1-0.1c-0.1-0.1-0.1-0.2-0.1-0.3c0,0,0-0.1,0.1-0.1
			c0,0,0.1-0.1,0.1-0.1c0.1,0,0.1,0,0.2,0c0,0,0,0,0.1,0c0,0,0,0,0.1,0c0,0,0,0,0.1,0c0,0,0.1,0.1,0.1,0.1c0.1,0.2,0,0.3-0.2,0.4
			C1704.1,781.2,1704.1,781.2,1704,781.2L1704,781.2z"/>
	</g>
	<g>
		<path class="st0" d="M1706.6,781.2c0,0-0.1,0-0.1,0c0,0-0.1,0-0.1-0.1c-0.1-0.1-0.1-0.1-0.1-0.2c0,0,0-0.1,0-0.1
			c0,0,0-0.1,0.1-0.1c0.1-0.1,0.3-0.1,0.5,0c0,0,0.1,0.1,0.1,0.1c0,0,0,0.1,0,0.1C1706.9,781,1706.8,781.2,1706.6,781.2
			C1706.6,781.2,1706.6,781.2,1706.6,781.2L1706.6,781.2z"/>
	</g>
</g>
</svg>
