<?xml version="1.0" encoding="utf-8"?>
<svg version="1.1" id="Capa_1" xmlns="http://www.w3.org/2000/svg" xmlns:xlink="http://www.w3.org/1999/xlink" x="0px" y="0px"
	 width="21px" height="21px" viewBox="0 0 21 21" style="enable-background:new 0 0 21 21;" xml:space="preserve">
<style type="text/css">
	.st0{fill:#39434E;}
</style>
<g>
	<g>
		<path class="st0" d="M15,9V7.8h2V6.6h-3.3V9h-2.6V2.5c0-0.7,0.6-1.3,1.3-1.3c0.7,0,1.3,0.6,1.3,1.3v1.6H15V2.5
			C15,1.1,13.8,0,12.4,0C11,0,9.9,1.1,9.9,2.5V9H7.3V6.6H4v1.2h2V9H0v1.5c0,3.8,3.1,6.8,6.8,6.8h1.8v1.8c0,1,0.8,1.8,1.8,1.8
			s1.8-0.8,1.8-1.8v-1.8h1.8c3.8,0,6.8-3.1,6.8-6.8V9L15,9L15,9z M11.1,19.2L11.1,19.2c0,0.3-0.3,0.6-0.6,0.6
			c-0.3,0-0.6-0.3-0.6-0.6v-1.8h1.2L11.1,19.2L11.1,19.2z M19.8,10.5c0,3.1-2.5,5.6-5.6,5.6H6.8c-3.1,0-5.6-2.5-5.6-5.6v-0.3h18.5
			L19.8,10.5L19.8,10.5z"/>
	</g>
</g>
</svg>
