<svg id="car-in-garage" xmlns="http://www.w3.org/2000/svg" width="21.35" height="19.094" viewBox="0 0 21.35 19.094">
  <g id="Grupo_94" data-name="Grupo 94" transform="translate(0)">
    <path id="Caminho_709" data-name="Caminho 709" d="M54.045,107.071a.962.962,0,0,0-.255.036l-.484.133-.62-1.509a2.2,2.2,0,0,0-1.879-1.26H44.368a2.2,2.2,0,0,0-1.879,1.26l-.619,1.507-.475-.131a.963.963,0,0,0-.255-.036.785.785,0,0,0-.791.832v.018a1.022,1.022,0,0,0,.83,1,7.7,7.7,0,0,0-.465,2.4v3.135a1.022,1.022,0,0,0,1.021,1.021h.588a1.022,1.022,0,0,0,1.021-1.021V113.8h8.486v.654a1.022,1.022,0,0,0,1.021,1.021h.588a1.022,1.022,0,0,0,1.021-1.021v-3.135A7.7,7.7,0,0,0,54,108.925a1.022,1.022,0,0,0,.839-1V107.9A.785.785,0,0,0,54.045,107.071Zm-11.518,1.214.984-2.4a1.32,1.32,0,0,1,1.127-.755h5.9a1.32,1.32,0,0,1,1.127.755l.984,2.4a.509.509,0,0,1-.506.755H43.034A.51.51,0,0,1,42.527,108.286Zm2.467,3.6a.409.409,0,0,1-.408.408H42.625a.41.41,0,0,1-.408-.408v-.834a.41.41,0,0,1,.408-.408h1.961a.41.41,0,0,1,.408.408v.834Zm7.944,0a.41.41,0,0,1-.408.408H50.569a.41.41,0,0,1-.408-.408v-.834a.41.41,0,0,1,.408-.408H52.53a.41.41,0,0,1,.408.408Z" transform="translate(-36.918 -96.713)" fill="#332d2e"/>
    <path id="Caminho_710" data-name="Caminho 710" d="M19.436,13.264H1.914A1.916,1.916,0,0,0,0,15.178V31.294a1.063,1.063,0,1,0,2.127,0V20.031h17.1V31.294a1.063,1.063,0,1,0,2.127,0V15.178A1.916,1.916,0,0,0,19.436,13.264ZM2.127,17.587h17.1v.372H2.127Zm0-.851v-.3h17.1v.3Zm0,2.444v-.372h17.1v.372Z" transform="translate(0 -13.264)" fill="#332d2e"/>
  </g>
</svg>
