<svg xmlns="http://www.w3.org/2000/svg" width="29.64" height="26.741" viewBox="0 0 29.64 26.741">
  <g id="Grupo_133" data-name="Grupo 133" transform="translate(0 0)">
    <path id="Caminho_235" data-name="Caminho 235" d="M8.118,23.589a6.524,6.524,0,0,1-.245,2.389,1.419,1.419,0,0,0,2,1.67,10.848,10.848,0,0,0,4.44-3.859h.938a9,9,0,1,0,0-18.008H10.006A9,9,0,0,0,8.122,23.589ZM10,7.292H15.26a7.492,7.492,0,1,1,0,14.984H13.88a.756.756,0,0,0-.668.405A9.055,9.055,0,0,1,9.383,26.2a8.185,8.185,0,0,0,.172-3.366.756.756,0,0,0-.638-.635A7.492,7.492,0,0,1,10.006,7.3Zm20.64,17.134a5.747,5.747,0,0,1-4.277,5.517,3.569,3.569,0,0,0,.145,1.1A1.152,1.152,0,0,1,24.9,32.4a6.972,6.972,0,0,1-2.7-2.281h-.4a5.692,5.692,0,0,1-5.4-3.893.756.756,0,1,1,1.434-.478A4.18,4.18,0,0,0,21.8,28.613h.826a.756.756,0,0,1,.671.4,4.606,4.606,0,0,0,1.6,1.651A5.329,5.329,0,0,1,24.92,29.2a.756.756,0,0,1,.638-.635,4.186,4.186,0,0,0-.015-8.284.764.764,0,0,1,.212-1.512,5.723,5.723,0,0,1,4.888,5.656ZM7.4,11.9a.756.756,0,0,1,.756-.756h8.95a.756.756,0,1,1,0,1.512H8.158A.756.756,0,0,1,7.4,11.9Zm0,2.873a.756.756,0,0,1,.756-.756h8.95a.756.756,0,1,1,0,1.512H8.158a.756.756,0,0,1-.756-.741Zm0,2.873a.756.756,0,0,1,.756-.756h6.128a.756.756,0,0,1,0,1.512H8.158a.756.756,0,0,1-.756-.741Z" transform="translate(-1.002 -5.78)" fill="#281c6c"/>
  </g>
</svg>
