<svg id="google-maps" xmlns="http://www.w3.org/2000/svg" width="30.634" height="30.634" viewBox="0 0 30.634 30.634">
  <path id="Caminho_848" data-name="Caminho 848" d="M25.758,0H4.875A4.881,4.881,0,0,0,0,4.875V25.759a4.881,4.881,0,0,0,4.875,4.875H25.758a4.881,4.881,0,0,0,4.875-4.875V4.875A4.881,4.881,0,0,0,25.758,0ZM19.163,6.794a4.676,4.676,0,1,1,9.353,0c0,1.7-2.6,5.836-4.676,8.7C21.762,12.63,19.163,8.491,19.163,6.794ZM2.118,4.875A2.761,2.761,0,0,1,4.875,2.118H18.918a6.769,6.769,0,0,0-1.872,4.676,9.935,9.935,0,0,0,1.314,3.983l-3.79,3.79h0L2.327,26.809a2.742,2.742,0,0,1-.209-1.051V4.875ZM4.875,28.516a2.741,2.741,0,0,1-1.051-.209L15.317,16.815,26.809,28.307a2.742,2.742,0,0,1-1.051.209Zm23.641-2.758a2.741,2.741,0,0,1-.209,1.051L16.815,15.317l2.62-2.62A60.151,60.151,0,0,0,23,17.907a1.059,1.059,0,0,0,1.678,0,58.962,58.962,0,0,0,3.838-5.667V25.759Z"/>
  <path id="Caminho_849" data-name="Caminho 849" d="M32.8,35.924A5.129,5.129,0,0,0,37.924,30.8a1.059,1.059,0,0,0-1.059-1.059H32.8a1.059,1.059,0,0,0,0,2.118h2.813a3.005,3.005,0,1,1-.688-3.184,1.059,1.059,0,1,0,1.5-1.5A5.123,5.123,0,1,0,32.8,35.924Z" transform="translate(-23.77 -22.053)"/>
</svg>
