<svg xmlns="http://www.w3.org/2000/svg" width="17.264" height="14.125" viewBox="0 0 17.264 14.125">
  <path id="Icon_material-photo-size-select-small" data-name="Icon material-photo-size-select-small" d="M18.847,14.167H17.278v1.569h1.569Zm0-3.139H17.278V12.6h1.569Zm0,6.278H17.278v1.569A1.688,1.688,0,0,0,18.847,17.306ZM12.569,4.75H11V6.319h1.569Zm6.278,3.139H17.278V9.458h1.569ZM17.278,4.75V6.319h1.569A1.688,1.688,0,0,0,17.278,4.75ZM3.153,18.875H9.431V14.167H1.583v3.139A1.574,1.574,0,0,0,3.153,18.875Zm0-10.986H1.583V9.458H3.153Zm9.417,9.417H11v1.569h1.569ZM15.708,4.75H14.139V6.319h1.569V4.75Zm0,12.556H14.139v1.569h1.569ZM3.153,4.75A1.688,1.688,0,0,0,1.583,6.319H3.153Zm0,6.278H1.583V12.6H3.153ZM9.431,4.75H7.861V6.319H9.431V4.75Zm-3.139,0H4.722V6.319H6.292Z" transform="translate(-1.583 -4.75)" fill="#444"/>
</svg>
