<svg xmlns="http://www.w3.org/2000/svg" width="17.5" height="13.75" viewBox="0 0 17.5 13.75">
  <g id="Icon_ionic-ios-bed" data-name="Icon ionic-ios-bed" transform="translate(-2.25 -5.625)">
    <path id="Caminho_864" data-name="Caminho 864" d="M18.9,14.625h-.016a.854.854,0,0,0-.852.852.087.087,0,0,1-.086.086H4.055a.087.087,0,0,1-.086-.086.854.854,0,0,0-.852-.852H3.1a.854.854,0,0,0-.852.852v7.047a.854.854,0,0,0,.852.852h.016a.854.854,0,0,0,.852-.852v-.242a.157.157,0,0,1,.156-.156h13.75a.157.157,0,0,1,.156.156v.242a.854.854,0,0,0,.852.852H18.9a.854.854,0,0,0,.852-.852V15.477A.854.854,0,0,0,18.9,14.625Z" transform="translate(0 -4)" fill="#444"/>
    <path id="Caminho_865" data-name="Caminho 865" d="M5.656,10.859h.879a.157.157,0,0,0,.156-.156V10.2a.627.627,0,0,1,.625-.625h3.809a.627.627,0,0,1,.625.625V10.7a.157.157,0,0,0,.156.156h.938A.157.157,0,0,0,13,10.7V10.2a.627.627,0,0,1,.625-.625h3.809a.627.627,0,0,1,.625.625V10.7a.157.157,0,0,0,.156.156h.879a.313.313,0,0,0,.313-.312V6.875a1.254,1.254,0,0,0-1.25-1.25H6.594a1.254,1.254,0,0,0-1.25,1.25v3.672A.313.313,0,0,0,5.656,10.859Z" transform="translate(-1.375)" fill="#444"/>
  </g>
</svg>
