<svg xmlns="http://www.w3.org/2000/svg" width="30.074" height="19.31" viewBox="0 0 30.074 19.31">
  <g id="message" transform="translate(0 -91.625)">
    <g id="Grupo_389" data-name="Grupo 389" transform="translate(7.214 91.625)">
      <g id="Grupo_388" data-name="Grupo 388" transform="translate(0 0)">
        <path id="Caminho_238" data-name="Caminho 238" d="M145.6,101.782,142.168,92.5a1.346,1.346,0,0,0-1.729-.8L123.7,97.9a1.345,1.345,0,0,0-.8,1.729l3.432,9.277a1.343,1.343,0,0,0,1.729.8l16.736-6.191h0A1.347,1.347,0,0,0,145.6,101.782Zm-6.081-8.3-5.191,7.421-8.771-2.256Zm-12.159,14.3-2.977-8.047,6.895,1.773Zm1.458.206,3.827-6.128,1.8.463a.685.685,0,0,0,.168.022.674.674,0,0,0,.552-.287l1.065-1.524,6.894,2.163Zm8.22-8.611,4.08-5.834,2.978,8.048Z" transform="translate(-122.825 -91.625)" fill="#281c6c"/>
      </g>
    </g>
    <g id="Grupo_391" data-name="Grupo 391" transform="translate(3.999 108.652)">
      <g id="Grupo_390" data-name="Grupo 390">
        <path id="Caminho_239" data-name="Caminho 239" d="M71.92,381.934a.673.673,0,0,0-.864-.4l-2.535.938a.673.673,0,1,0,.467,1.262l2.535-.938A.673.673,0,0,0,71.92,381.934Z" transform="translate(-68.081 -381.494)" fill="#281c6c"/>
      </g>
    </g>
    <g id="Grupo_393" data-name="Grupo 393" transform="translate(1.538 102.406)">
      <g id="Grupo_392" data-name="Grupo 392" transform="translate(0 0)">
        <path id="Caminho_240" data-name="Caminho 240" d="M29.05,275.6a.673.673,0,0,0-.864-.4l-1.565.579a.673.673,0,1,0,.467,1.262l1.565-.579A.673.673,0,0,0,29.05,275.6Z" transform="translate(-26.182 -275.164)" fill="#281c6c"/>
      </g>
    </g>
    <g id="Grupo_395" data-name="Grupo 395" transform="translate(0 107.502)">
      <g id="Grupo_394" data-name="Grupo 394" transform="translate(0)">
        <path id="Caminho_241" data-name="Caminho 241" d="M2.466,362.365a.673.673,0,0,0-.864-.4l-1.163.43a.673.673,0,1,0,.467,1.262l1.163-.43A.673.673,0,0,0,2.466,362.365Z" transform="translate(0 -361.926)" fill="#281c6c"/>
      </g>
    </g>
  </g>
</svg>
