<svg id="double-king-size-bed" xmlns="http://www.w3.org/2000/svg" width="21.951" height="17.732" viewBox="0 0 21.951 17.732">
  <path id="Caminho_711" data-name="Caminho 711" d="M22.647,49.374,20.23,45.549V38.512l-.984-.984H4.184l-.984.984v7.037L.784,49.374ZM18.263,39.5v4.91a26.372,26.372,0,0,0-6.548-.732,26.372,26.372,0,0,0-6.548.732V39.5Z" transform="translate(-0.74 -37.528)" fill="#332d2e"/>
  <path id="Caminho_712" data-name="Caminho 712" d="M0,269.831V271.8H2.292v2.709H4.259V271.8H17.692v2.709h1.967V271.8h2.292v-1.967Z" transform="translate(0 -256.775)" fill="#332d2e"/>
  <path id="Caminho_713" data-name="Caminho 713" d="M107.026,88.726V87.58c0-.68-.987-1.232-2.2-1.232s-2.2.552-2.2,1.232V89.3a18.5,18.5,0,0,1,2.194-.412C105.615,88.811,107.026,88.726,107.026,88.726Z" transform="translate(-96.849 -83.604)" fill="#332d2e"/>
  <path id="Caminho_714" data-name="Caminho 714" d="M213.891,89.3V87.58c0-.68-.987-1.232-2.2-1.232s-2.2.552-2.2,1.232v1.146s1.411.086,2.215.162A18.5,18.5,0,0,1,213.891,89.3Z" transform="translate(-197.707 -83.604)" fill="#332d2e"/>
</svg>
