<svg version="1.1" xmlns="http://www.w3.org/2000/svg" xmlns:xlink="http://www.w3.org/1999/xlink" x="0px" y="0px" width="25px" height="25px" viewBox="0 0 25 25" enable-background="new 0 0 25 25" xml:space="preserve">
<g>
<g>
<path fill-rule="evenodd" clip-rule="evenodd" fill="#39434E" d="M23.836,11.728c-3.472,0.087-6.943-0.263-10.415-0.01
                                                                    c-3.437,0-6.874,0.004-10.311-0.005c-0.421-0.001-0.99,0.185-0.986-0.579c0.009-1.76-0.01-3.521,0.031-5.28
                                                                    c0.019-0.809,0.56-1.192,1.328-1.208C4.266,4.63,4.755,5.063,4.866,5.824c0.052,0.356,0.3,0.864-0.346,1.023
                                                                    C4.233,6.918,3.711,6.742,3.791,7.256c0.068,0.439,0.555,0.229,0.856,0.247c0.543,0.031,1.089,0.01,1.634,0.004
                                                                    C6.49,7.505,6.732,7.498,6.74,7.219c0.007-0.259-0.213-0.356-0.428-0.345C5.75,6.903,5.535,6.722,5.492,6.099
                                                                    C5.396,4.701,4.535,3.908,3.37,3.983C2.228,4.057,1.469,4.975,1.454,6.347c-0.016,1.425-0.003,2.85-0.003,4.275
                                                                    c0,0.563,0.176,1.242-0.807,1.119c-0.196-0.025-0.443,0.103-0.384,0.367c0.029,0.127,0.233,0.321,0.339,0.309
                                                                    c1.003-0.107,0.938,0.655,1.124,1.275c0.643,2.153,1.748,4.01,3.801,5.079c0.711,0.37,1.075,0.63,0.577,1.408
                                                                    c-0.177,0.275-0.329,0.685,0.133,0.822c0.357,0.106,0.484-0.272,0.54-0.553c0.21-1.055,0.913-1.159,1.841-1.14
                                                                    c2.681,0.055,5.365,0.045,8.047,0.004c0.831-0.013,1.466,0.064,1.65,1.039c0.054,0.286,0.16,0.785,0.588,0.646
                                                                    c0.556-0.18,0.173-0.624,0.095-0.948c-0.094-0.387-0.607-0.764,0.091-1.112c2.441-1.216,3.677-3.321,4.238-5.89
                                                                    c0.087-0.399,0.216-0.598,0.637-0.58c0.331,0.014,0.81,0.028,0.785-0.392C24.715,11.535,24.167,11.72,23.836,11.728z
                                                                     M15.324,12.494c0.541-0.004,1.082-0.016,1.622,0c0.381,0.011,0.849-0.157,0.855,0.549c0.006,0.696-0.444,0.557-0.837,0.571
                                                                    c-0.208,0.007-0.416,0.001-0.624,0.001c0-0.001,0-0.002,0-0.004c-0.333,0-0.666,0.002-0.999,0
                                                                    c-0.366-0.003-0.494-0.193-0.495-0.551C14.845,12.708,14.949,12.497,15.324,12.494z M15.403,14.352
                                                                    c0.497,0.011,0.994-0.001,1.491,0.001c0.445,0.002,0.908-0.11,0.918,0.633c0.01,0.699-0.372,0.714-0.864,0.691
                                                                    c-0.207-0.009-0.414-0.001-0.621-0.001c0-0.002,0-0.005,0-0.007c-0.332,0-0.664,0.014-0.994-0.003
                                                                    c-0.439-0.023-0.503-0.317-0.495-0.69C14.846,14.582,14.961,14.342,15.403,14.352z M22.303,14.118
                                                                    c-1.042,3.067-2.96,4.455-6.154,4.455c-2.678,0-5.363-0.11-8.034,0.028c-3.377,0.174-5.39-3.334-5.793-5.594
                                                                    c-0.123-0.689,0.364-0.524,0.688-0.527c1.757-0.016,3.515-0.007,5.273-0.007c1.674,0,3.35,0.043,5.021-0.019
                                                                    c0.804-0.03,0.958,0.252,0.96,1c0.007,2.88,0.036,2.844,2.949,2.883c0.901,0.012,1.234-0.167,1.22-1.155
                                                                    c-0.037-2.708,0.015-2.709,2.703-2.709C22.817,12.472,22.847,12.515,22.303,14.118z"></path>
<path fill="#39434E" d="M18.763,21.273c-0.532,0-0.652-0.635-0.697-0.875c-0.135-0.715-0.5-0.835-1.265-0.835l-0.134,0.001
                                                                    c-3.096,0.047-5.632,0.045-8.056-0.004c-0.057-0.001-0.114-0.002-0.169-0.002c-0.818,0-1.262,0.146-1.419,0.939
                                                                    c-0.127,0.64-0.435,0.774-0.67,0.774c-0.061,0-0.124-0.01-0.188-0.029c-0.286-0.084-0.402-0.254-0.449-0.381
                                                                    c-0.084-0.225-0.023-0.508,0.176-0.818c0.152-0.238,0.214-0.419,0.182-0.538c-0.047-0.177-0.341-0.343-0.664-0.511
                                                                    c-1.883-0.98-3.167-2.691-3.926-5.23c-0.036-0.119-0.063-0.243-0.089-0.366c-0.118-0.547-0.197-0.739-0.613-0.739
                                                                    c-0.047,0-0.099,0.003-0.153,0.009L0.59,12.67c-0.245,0-0.525-0.283-0.575-0.506c-0.038-0.169-0.003-0.332,0.097-0.458
                                                                    c0.125-0.157,0.351-0.241,0.563-0.215c0.067,0.009,0.128,0.013,0.184,0.013c0.094,0,0.218-0.013,0.275-0.073
                                                                    c0.089-0.093,0.079-0.347,0.07-0.572c-0.003-0.08-0.006-0.16-0.006-0.238c0-0.442-0.001-0.884-0.002-1.327
                                                                    C1.194,8.328,1.192,7.328,1.202,6.344C1.219,4.84,2.063,3.815,3.354,3.732c1.338-0.084,2.287,0.856,2.389,2.35
                                                                    c0.034,0.497,0.153,0.543,0.46,0.543c0.03,0,0.063-0.001,0.096-0.003l0.046-0.001c0.199,0,0.374,0.066,0.492,0.188
                                                                    c0.105,0.109,0.159,0.253,0.154,0.417C6.977,7.752,6.455,7.757,6.284,7.759L5.91,7.765c-0.2,0.003-0.4,0.006-0.6,0.006
                                                                    c-0.258,0-0.474-0.005-0.677-0.017C4.545,7.75,4.485,7.762,4.419,7.769C4.33,7.78,4.239,7.79,4.154,7.79
                                                                    c-0.466,0-0.584-0.31-0.613-0.495c-0.031-0.2,0.004-0.362,0.104-0.481c0.159-0.189,0.409-0.193,0.609-0.196
                                                                    c0.077-0.001,0.156-0.002,0.204-0.014c0.274-0.068,0.283-0.156,0.198-0.536C4.642,5.995,4.626,5.925,4.617,5.86
                                                                    C4.526,5.23,4.148,4.897,3.525,4.897l-0.037,0C3.005,4.908,2.424,5.083,2.406,5.86c-0.027,1.2-0.027,2.422-0.028,3.604
                                                                    c0,0.557,0,1.114-0.003,1.671c0,0.144,0.023,0.247,0.067,0.292c0.036,0.036,0.112,0.053,0.233,0.053
                                                                    c0.067,0,0.136-0.005,0.204-0.009c0.078-0.005,0.154-0.01,0.227-0.01c1.836,0.005,3.667,0.006,5.498,0.006l4.817,0
                                                                    c0.852-0.063,1.794-0.094,2.864-0.094c1.062,0,2.14,0.03,3.182,0.059c1.431,0.04,2.91,0.081,4.363,0.044
                                                                    c0.055-0.001,0.117-0.008,0.181-0.015c0.097-0.011,0.199-0.021,0.295-0.021c0.57,0,0.679,0.39,0.692,0.622
                                                                    c0.013,0.223-0.073,0.365-0.148,0.444c-0.183,0.194-0.469,0.219-0.699,0.219l0,0c-0.069,0-0.137-0.003-0.2-0.005l-0.04-0.001
                                                                    c-0.194,0-0.264,0.03-0.341,0.383c-0.641,2.932-2.071,4.915-4.373,6.061c-0.179,0.089-0.212,0.155-0.218,0.173
                                                                    c-0.019,0.058,0.048,0.184,0.106,0.294c0.057,0.107,0.122,0.229,0.153,0.361c0.014,0.056,0.044,0.128,0.077,0.204
                                                                    c0.087,0.206,0.196,0.462,0.084,0.708c-0.07,0.154-0.212,0.266-0.422,0.334C18.905,21.261,18.832,21.273,18.763,21.273z
                                                                     M16.801,19.06c0.737,0,1.542,0.096,1.759,1.245c0.073,0.385,0.15,0.465,0.203,0.465c0.017,0,0.038-0.004,0.062-0.012
                                                                    c0.086-0.028,0.116-0.057,0.12-0.064c0.02-0.044-0.054-0.219-0.09-0.303c-0.039-0.091-0.079-0.186-0.102-0.282
                                                                    c-0.018-0.071-0.062-0.155-0.109-0.243c-0.1-0.189-0.225-0.424-0.141-0.684c0.06-0.188,0.214-0.341,0.473-0.47
                                                                    c2.156-1.074,3.499-2.944,4.105-5.718c0.087-0.398,0.251-0.804,0.893-0.778c0.057,0.002,0.118,0.005,0.179,0.005l0,0
                                                                    c0.255,0,0.319-0.047,0.333-0.061c0.013-0.014,0.012-0.053,0.011-0.069c-0.007-0.116-0.017-0.149-0.19-0.149
                                                                    c-0.079,0-0.161,0.01-0.24,0.019c-0.08,0.009-0.156,0.017-0.224,0.019c-1.464,0.037-2.952-0.005-4.39-0.045
                                                                    c-1.039-0.029-2.113-0.059-3.168-0.059c-1.057,0-1.988,0.03-2.845,0.093L8.604,11.97c-1.832,0-3.663-0.001-5.494-0.006l0,0
                                                                    c-0.065,0-0.131,0.004-0.197,0.009c-0.079,0.005-0.159,0.01-0.237,0.01c-0.167,0-0.41-0.021-0.589-0.201
                                                                    c-0.145-0.146-0.215-0.358-0.213-0.649c0.003-0.557,0.003-1.113,0.003-1.669c0-1.185,0-2.41,0.028-3.616
                                                                    c0.021-0.89,0.609-1.434,1.574-1.454l0.048,0c0.882,0,1.461,0.508,1.59,1.394c0.008,0.054,0.021,0.111,0.034,0.17
                                                                    C5.217,6.264,5.357,6.9,4.58,7.092C4.477,7.117,4.369,7.119,4.264,7.121c-0.072,0.001-0.19,0.003-0.233,0.02
                                                                    c0.003,0.006,0.001,0.032,0.008,0.077C4.044,7.253,4.053,7.27,4.056,7.272l0,0c0,0,0.021,0.015,0.099,0.015
                                                                    c0.066,0,0.137-0.009,0.207-0.017c0.106-0.013,0.21-0.023,0.301-0.018c0.194,0.011,0.4,0.017,0.648,0.017
                                                                    c0.197,0,0.395-0.003,0.592-0.007l0.377-0.005c0.051,0,0.168-0.001,0.208-0.02c-0.001-0.003,0-0.011,0.001-0.024
                                                                    C6.489,7.173,6.479,7.163,6.476,7.16C6.459,7.142,6.412,7.124,6.345,7.124C6.283,7.127,6.242,7.128,6.203,7.128
                                                                    c-0.625,0-0.913-0.303-0.962-1.012C5.158,4.9,4.437,4.165,3.386,4.234C2.363,4.3,1.719,5.11,1.706,6.349
                                                                    C1.695,7.33,1.697,8.328,1.7,9.294c0.001,0.442,0.002,0.885,0.002,1.328c0,0.071,0.003,0.144,0.006,0.217
                                                                    c0.013,0.325,0.027,0.693-0.21,0.94c-0.146,0.151-0.36,0.228-0.639,0.228c-0.074,0-0.156-0.005-0.247-0.017
                                                                    c-0.06,0.003-0.098,0.018-0.107,0.03c-0.005,0.006,0,0.028,0,0.033c0.011,0.026,0.068,0.086,0.107,0.111
                                                                    c0.051-0.005,0.111-0.008,0.167-0.008c0.859,0,1.001,0.657,1.105,1.136c0.023,0.11,0.047,0.222,0.079,0.329
                                                                    c0.718,2.402,1.92,4.014,3.677,4.928c0.458,0.238,0.817,0.451,0.917,0.827c0.071,0.269-0.006,0.567-0.245,0.939
                                                                    c-0.116,0.181-0.147,0.317-0.127,0.371C6.2,20.725,6.275,20.75,6.307,20.76c0.017,0.005,0.033,0.008,0.045,0.008
                                                                    c0.051,0,0.125-0.114,0.176-0.369c0.235-1.181,1.058-1.344,1.913-1.344c0.059,0,0.119,0,0.18,0.002
                                                                    c2.417,0.049,4.948,0.051,8.038,0.004L16.801,19.06z M7.875,18.858c-3.286,0-5.37-3.396-5.8-5.808
                                                                    c-0.052-0.289-0.017-0.5,0.105-0.646c0.16-0.191,0.412-0.191,0.494-0.191c0.062,0,0.125,0.004,0.187,0.009
                                                                    c0.048,0.003,0.096,0.007,0.141,0.007c0.865-0.008,1.725-0.01,2.583-0.01l2.698,0.002c0.495,0,0.982,0.004,1.469,0.007
                                                                    c0.486,0.004,0.972,0.007,1.458,0.007c0.811,0,1.474-0.01,2.085-0.033c0.042-0.001,0.081-0.002,0.119-0.002
                                                                    c0.915,0,1.1,0.479,1.102,1.252c0.003,1.366,0.018,2.035,0.298,2.316c0.286,0.288,1,0.297,2.295,0.314l0.186,0.002
                                                                    c0.399,0,0.617-0.048,0.728-0.16c0.115-0.116,0.166-0.352,0.16-0.741c-0.02-1.428-0.011-2.132,0.395-2.543
                                                                    c0.415-0.421,1.136-0.421,2.444-0.421h0.116c0.865,0,1.387,0,1.621,0.326c0.233,0.327,0.064,0.826-0.217,1.653
                                                                    c-1.072,3.156-3.104,4.625-6.392,4.625c-0.825,0-1.65-0.01-2.475-0.021c-0.823-0.01-1.646-0.021-2.469-0.021
                                                                    c-1.186,0-2.164,0.022-3.077,0.069C8.043,18.856,7.958,18.858,7.875,18.858z M2.563,12.73c0.002,0-0.024,0.056,0.007,0.232
                                                                    c0.399,2.24,2.309,5.393,5.304,5.393c0,0,0,0,0,0c0.075,0,0.151-0.002,0.228-0.006c0.921-0.047,1.908-0.069,3.103-0.069
                                                                    c0.825,0,1.65,0.01,2.476,0.021c0.823,0.011,1.646,0.021,2.469,0.021c3.084,0,4.908-1.322,5.916-4.285
                                                                    c0.164-0.481,0.367-1.082,0.284-1.198c-0.083-0.115-0.708-0.115-1.211-0.115h-0.116c-1.195,0-1.831,0.012-2.086,0.271
                                                                    c-0.263,0.267-0.266,0.932-0.249,2.183c0.007,0.54-0.087,0.879-0.305,1.101c-0.269,0.272-0.681,0.31-1.086,0.31l-0.192-0.002
                                                                    c-2.967-0.04-3.082-0.157-3.09-3.133c-0.001-0.639-0.091-0.751-0.599-0.751c-0.032,0-0.065,0-0.1,0.002
                                                                    c-0.618,0.023-1.287,0.034-2.104,0.034c-0.487,0-0.975-0.004-1.462-0.007c-0.486-0.003-0.972-0.007-1.458-0.007l-2.706-0.002
                                                                    c-0.857,0-1.715,0.002-2.573,0.009c-0.058,0.004-0.125-0.003-0.187-0.008c-0.05-0.004-0.102-0.007-0.152-0.007
                                                                    C2.591,12.716,2.566,12.728,2.563,12.73z M17.144,15.934c-0.066,0-0.136-0.002-0.208-0.006c-0.074-0.003-0.147-0.004-0.222-0.004
                                                                    l-0.64,0.003v-0.005c-0.017,0-0.034,0-0.051,0c-0.235,0.003-0.47,0.006-0.704-0.006c-0.753-0.04-0.738-0.722-0.734-0.947
                                                                    c0.012-0.577,0.278-0.87,0.791-0.87l0.031,0c0.303,0.007,0.605,0.005,0.909,0.002c0.15-0.001,0.299-0.002,0.449-0.002h0.129
                                                                    c0.053-0.007,0.104-0.001,0.15-0.002c0.05-0.001,0.099-0.003,0.147-0.003c0.235,0,0.859,0,0.871,0.886
                                                                    c0.005,0.331-0.069,0.569-0.227,0.728C17.641,15.909,17.364,15.934,17.144,15.934z M16.715,15.42c0.082,0,0.164,0.001,0.245,0.005
                                                                    c0.063,0.003,0.125,0.005,0.184,0.005c0.181,0,0.284-0.023,0.334-0.074c0.056-0.057,0.084-0.184,0.082-0.368
                                                                    c-0.005-0.39-0.119-0.39-0.368-0.39c-0.044,0-0.089,0.001-0.134,0.002c-0.051,0.001-0.102,0.002-0.152,0.002l-0.14,0
                                                                    c-0.148,0-0.297,0.001-0.445,0.002c-0.308,0.002-0.616,0.004-0.923-0.002c-0.001,0-0.002,0-0.003,0
                                                                    c-0.207,0-0.297,0.018-0.304,0.376c-0.008,0.402,0.078,0.424,0.257,0.434c0.224,0.011,0.447,0.008,0.671,0.006
                                                                    c0.103-0.001,0.207-0.003,0.31-0.003L16.715,15.42z M16.728,13.868l-0.639-0.006l-0.373,0l-0.376-0.001
                                                                    c-0.339-0.002-0.743-0.144-0.745-0.802c-0.002-0.671,0.395-0.815,0.728-0.818l0.331-0.003c0.434-0.005,0.868-0.01,1.301,0.003
                                                                    l0.031,0c0.049,0,0.099-0.002,0.148-0.005c0.058-0.003,0.115-0.006,0.171-0.006c0.492,0,0.744,0.272,0.749,0.809
                                                                    c0.003,0.288-0.063,0.496-0.202,0.636c-0.202,0.203-0.465,0.195-0.707,0.188c-0.038,0-0.076-0.001-0.114-0.001l-0.058,0.001
                                                                    C16.891,13.868,16.809,13.868,16.728,13.868z M16.591,13.364l0.136,0.001c0.076,0,0.151-0.001,0.227-0.004
                                                                    c0.066-0.002,0.134,0,0.202,0.001c0.038,0.001,0.075,0.002,0.111,0.002c0.079,0,0.188-0.004,0.226-0.042
                                                                    c0.014-0.014,0.058-0.075,0.057-0.278c-0.003-0.31-0.074-0.31-0.246-0.31c-0.048,0-0.097,0.002-0.146,0.005
                                                                    c-0.058,0.003-0.116,0.005-0.173,0.005l-0.045,0c-0.427-0.012-0.854-0.007-1.281-0.003l-0.332,0.003
                                                                    c-0.153,0.001-0.229,0.002-0.228,0.313c0.001,0.286,0.08,0.299,0.245,0.3l0.373,0.001l0.875-0.001V13.364z"></path>
</g>
</g>
</svg>