<svg version="1.1" xmlns="http://www.w3.org/2000/svg" xmlns:xlink="http://www.w3.org/1999/xlink" x="0px" y="0px" width="21px" height="20.38px" viewBox="0 0 21 20.38" enable-background="new 0 0 21 20.38" xml:space="preserve">
                                                <g>
                                                    <path d="M18.545,18.89c-1.026,0-1.886-0.726-2.094-1.69H4.561c-0.213,0.972-1.07,1.69-2.091,1.69c-1.181,0-2.142-0.961-2.142-2.143
                                                    v-2.271c-0.008-0.034-0.013-0.07-0.013-0.107v-3.681c0-0.847,0.632-1.589,1.243-2.306c0.014-0.017,0.028-0.032,0.042-0.049
                                                    C0.667,8.081,0.167,7.262,0.021,6.793C-0.021,6.656,0,6.508,0.081,6.389c0.026-0.039,0.661-0.96,1.813-0.96
                                                    c0.339,0,0.685,0.081,1.032,0.24c0.033-0.103,0.067-0.223,0.098-0.33c0.244-0.85,0.653-2.271,1.922-3.218
                                                    c0.206-0.153,0.833-0.62,5.441-0.63l0.226-0.001c4.611,0.012,5.236,0.478,5.442,0.631c1.269,0.946,1.678,2.368,1.922,3.219
                                                    c0.031,0.106,0.065,0.227,0.098,0.329c0.347-0.159,0.692-0.24,1.032-0.24c1.152,0,1.787,0.921,1.813,0.96
                                                    c0.08,0.119,0.102,0.268,0.06,0.404c-0.146,0.469-0.646,1.288-1.577,1.541c0.014,0.017,0.027,0.032,0.041,0.049
                                                    c0.611,0.717,1.243,1.459,1.243,2.306v1.261c0.001,0.015,0.001,0.028,0.001,0.042v4.756C20.687,17.929,19.726,18.89,18.545,18.89z
                                                     M4.14,16.256h12.735c0.261,0,0.472,0.211,0.472,0.472c0,0.681,0.538,1.219,1.199,1.219c0.661,0,1.199-0.538,1.199-1.199v-4.714
                                                    c-0.001-0.014-0.001-0.027-0.001-0.042v-1.303c0-0.5-0.518-1.107-1.018-1.694c-0.226-0.265-0.459-0.539-0.652-0.812
                                                    c-0.109-0.155-0.115-0.36-0.015-0.521c0.1-0.161,0.288-0.246,0.475-0.217c0.096,0.016,0.189,0.023,0.279,0.023
                                                    c0.657,0,1.008-0.447,1.164-0.73c-0.169-0.159-0.467-0.365-0.87-0.365c-0.266,0-0.553,0.09-0.853,0.268
                                                    c-0.107,0.063-0.22,0.095-0.335,0.095l0,0c-0.523,0.001-0.674-0.525-0.849-1.135c-0.225-0.783-0.565-1.967-1.579-2.722
                                                    c-0.06-0.045-0.703-0.435-4.879-0.443l-0.223-0.001C6.211,2.444,5.568,2.833,5.509,2.878C4.495,3.633,4.155,4.816,3.93,5.6
                                                    C3.755,6.209,3.604,6.734,3.082,6.734c0,0,0,0,0,0c-0.115,0-0.228-0.031-0.335-0.095C2.447,6.462,2.16,6.372,1.894,6.372
                                                    c-0.403,0-0.7,0.206-0.87,0.365c0.156,0.283,0.506,0.73,1.164,0.73c0.089,0,0.183-0.008,0.279-0.023
                                                    C2.653,7.414,2.841,7.5,2.941,7.661c0.101,0.161,0.095,0.366-0.015,0.521C2.734,8.455,2.5,8.729,2.275,8.994
                                                    c-0.5,0.587-1.018,1.194-1.018,1.694v3.557c0.009,0.035,0.013,0.07,0.013,0.107v2.395c0,0.661,0.538,1.199,1.199,1.199
                                                    c0.661,0,1.199-0.538,1.199-1.199C3.668,16.487,3.879,16.256,4.14,16.256z"></path>
                                                </g>
                                                <g>
                                                    <g>
                                                        <path d="M13.042,15.143H7.958c-0.954,0-1.729-0.776-1.729-1.729c0-1.083,0.529-1.729,1.415-1.729h5.712
                                                        c0.886,0,1.415,0.646,1.415,1.729C14.771,14.366,13.995,15.143,13.042,15.143z M7.644,12.627c-0.141,0-0.472,0-0.472,0.786
                                                        c0,0.434,0.353,0.786,0.786,0.786h5.083c0.434,0,0.786-0.353,0.786-0.786c0-0.786-0.331-0.786-0.472-0.786H7.644z"></path>
                                                    </g>
                                                    <g>
                                                        <path d="M8.666,14.985c-0.174,0-0.314-0.141-0.314-0.314v-2.516c0-0.174,0.141-0.314,0.314-0.314s0.314,0.141,0.314,0.314v2.516
                                                        C8.98,14.845,8.839,14.985,8.666,14.985z"></path>
                                                    </g>
                                                    <g>
                                                        <path d="M12.439,14.985c-0.174,0-0.314-0.141-0.314-0.314v-2.516c0-0.174,0.141-0.314,0.314-0.314
                                                        c0.173,0,0.314,0.141,0.314,0.314v2.516C12.753,14.845,12.612,14.985,12.439,14.985z"></path>
                                                    </g>
                                                    <g>
                                                        <path d="M10.552,14.985c-0.174,0-0.314-0.141-0.314-0.314v-2.516c0-0.174,0.141-0.314,0.314-0.314
                                                        c0.173,0,0.314,0.141,0.314,0.314v2.516C10.867,14.845,10.726,14.985,10.552,14.985z"></path>
                                                    </g>
                                                </g>
                                                <g>
                                                    <g>
                                                        <path d="M3.766,13.116c-0.86,0-1.559-0.699-1.559-1.559c0-0.86,0.699-1.56,1.559-1.56c0.859,0,1.559,0.699,1.559,1.56
                                                        C5.325,12.417,4.625,13.116,3.766,13.116z M3.766,10.941c-0.34,0-0.616,0.276-0.616,0.616c0,0.339,0.276,0.615,0.616,0.615
                                                        c0.339,0,0.616-0.276,0.616-0.615C4.381,11.218,4.105,10.941,3.766,10.941z"></path>
                                                    </g>
                                                    <g>
                                                        <path d="M17.234,13.116c-0.86,0-1.559-0.699-1.559-1.559c0-0.86,0.699-1.56,1.559-1.56c0.859,0,1.559,0.699,1.559,1.56
                                                        C18.793,12.417,18.094,13.116,17.234,13.116z M17.234,10.941c-0.34,0-0.616,0.276-0.616,0.616c0,0.339,0.276,0.615,0.616,0.615
                                                        c0.339,0,0.615-0.276,0.615-0.615C17.85,11.218,17.574,10.941,17.234,10.941z"></path>
                                                    </g>
                                                </g>
                                                <g>
                                                    <g>
                                                        <path d="M10.657,8.016H5.6c-0.327,0-0.59-0.149-0.723-0.41C4.479,6.828,5.569,5.04,6.554,3.678
                                                        c0.089-0.123,0.231-0.195,0.382-0.195h3.721c0.26,0,0.472,0.211,0.472,0.472c0,0.26-0.211,0.472-0.472,0.472H7.179
                                                        C6.43,5.494,5.82,6.616,5.735,7.071l4.922,0.001c0.26,0,0.472,0.211,0.472,0.472C11.129,7.804,10.917,8.016,10.657,8.016z"></path>
                                                    </g>
                                                    <g>
                                                        <path d="M15.4,8.016h-5.057c-0.261,0-0.472-0.212-0.472-0.472c0-0.261,0.211-0.472,0.472-0.472h4.922
                                                        C15.18,6.617,14.57,5.494,13.82,4.426h-3.478c-0.261,0-0.472-0.212-0.472-0.472c0-0.261,0.211-0.472,0.472-0.472h3.721
                                                        c0.151,0,0.293,0.072,0.382,0.195c0.984,1.362,2.075,3.15,1.677,3.928C15.989,7.866,15.726,8.016,15.4,8.016z"></path>
                                                    </g>
                                                </g>
                                            </svg>