<svg xmlns="http://www.w3.org/2000/svg" width="30.496" height="30.745" viewBox="0 0 30.496 30.745">
  <g id="whatsapp" transform="translate(-1.69 0)">
    <path id="Caminho_236" data-name="Caminho 236" d="M16.193.018A15.254,15.254,0,0,0,3.35,22.173L1.731,30.031a.594.594,0,0,0,.718.7l7.7-1.824A15.249,15.249,0,1,0,16.193.018Zm9.188,23.673a11.947,11.947,0,0,1-13.756,2.252l-1.072-.534L5.831,26.527,6.825,21.7,6.3,20.668A11.95,11.95,0,0,1,8.5,6.806,11.939,11.939,0,1,1,25.381,23.691Z" transform="translate(0 0)" fill="#281c6c"/>
    <path id="Caminho_237" data-name="Caminho 237" d="M119.663,118.074l-2.954-.848a1.1,1.1,0,0,0-1.089.287l-.722.736a1.076,1.076,0,0,1-1.17.247,15.767,15.767,0,0,1-5.087-4.486,1.076,1.076,0,0,1,.085-1.192l.631-.816a1.1,1.1,0,0,0,.136-1.118l-1.243-2.81a1.1,1.1,0,0,0-1.72-.394,4.968,4.968,0,0,0-1.921,2.93c-.21,2.069.678,4.678,4.034,7.81,3.877,3.619,6.982,4.1,9,3.607a4.968,4.968,0,0,0,2.641-2.3A1.1,1.1,0,0,0,119.663,118.074Z" transform="translate(-95.325 -99.519)" fill="#281c6c"/>
  </g>
</svg>
