<?xml version="1.0" encoding="utf-8"?>
<!-- Generator: Adobe Illustrator 22.0.1, SVG Export Plug-In . SVG Version: 6.00 Build 0)  -->
<svg version="1.1" id="Camada_1" xmlns="http://www.w3.org/2000/svg" xmlns:xlink="http://www.w3.org/1999/xlink" x="0px" y="0px"
	 width="361.1px" height="320px" viewBox="0 0 361.1 320" style="enable-background:new 0 0 361.1 320;" xml:space="preserve">
<style type="text/css">
	.st0{fill:#FFFFFF;}
</style>
<path class="st0" d="M82.5,292.8c-24.6,0-49.3,0-73.9,0c-1.2,0-2.5-0.1-3.7,0.1c-2.8,0.4-4.5,2.2-4.8,5c-0.3,3.1,1.3,5.1,4.2,5.9
	c1.1,0.4,2.5,0.2,3.7,0.2c49.6,0,99.2,0,148.7,0c0.9,0,1.9,0.1,2.8-0.1c3.4-0.5,5.4-2.4,5.2-6c-0.2-3.3-2.2-5-5.5-5.2
	c-1.9-0.1-3.7,0-5.6,0C129.9,292.8,106.2,292.8,82.5,292.8z"/>
<path class="st0" d="M34.6,260.6c9,0,18,0,27.1,0c5,0,7.6-1.9,7.6-5.6c0-3.7-2.5-5.6-7.5-5.6c-18,0-36.1,0-54.1,0
	c-5,0-7.6,2-7.6,5.5c0,3.6,2.6,5.6,7.5,5.7C16.5,260.6,25.6,260.6,34.6,260.6z"/>
<path class="st0" d="M26.1,181.8c30.2,19.4,60.5,38.8,90.8,58.1c38.5,24.6,77.1,49.3,115.6,73.9c16.6,10.6,32.2,7.3,42.8-9.3
	c26.6-41.7,53.3-83.4,79.9-125c10.3-16.1,6.8-31.8-9.3-42.1C277.3,93.5,208.7,49.5,140,5.5C134.8,2.2,129.3,0,121.6,0
	c-9.2,0.5-17.2,5.2-22.9,14.2c-27,42.4-54.1,84.7-81.1,127.1c-1.9,3-3.6,6.2-4.5,9.7C10.2,163.3,14.9,174.6,26.1,181.8z M27.9,146.1
	c26.5-41.4,53-82.9,79.5-124.3c7.5-11.7,15.9-13.5,27.5-6.1c41.5,26.4,82.9,52.9,124.3,79.3c27.2,17.3,54.3,34.7,81.5,51.9
	c5.7,3.6,9,8.4,9.2,15.2c0.1,4.1-1.7,7.5-3.8,10.8c-26.7,41.8-53.4,83.7-80.1,125.5c-7.1,11.1-15.8,13-26.9,5.9
	c-68.5-43.7-136.9-87.4-205.4-131.1C22.5,166.1,20.6,157.5,27.9,146.1z"/>
<path class="st0" d="M248.3,178.1c22,0,44,0,66,0c1.4,0,2.8,0,4.2-0.1c3.1-0.3,4.9-2.2,5.1-5.1c0.2-3-1.5-5.1-4.4-5.7
	c-1.5-0.3-3.1-0.3-4.6-0.3c-42.6,0-85.1-0.1-127.7,0.1c-3.5,0-5.1-1.1-6.5-4.3c-17.5-38.1-35.2-76.1-52.9-114.2
	c-0.5-1.1-1-2.3-1.7-3.3c-1.7-2.5-4.2-3.3-6.9-2.1c-2.7,1.2-4,3.5-3.4,6.4c0.4,1.6,1.1,3.2,1.8,4.8c18.3,39.3,36.8,78.5,55,117.9
	c2.1,4.5,4.8,6.1,9.7,6C204,177.9,226.2,178.1,248.3,178.1z"/>
<path class="st0" d="M89.9,159.2c11.5,0,23,0,34.6,0c5,0,7.5-1.9,7.5-5.6c0-3.7-2.6-5.6-7.6-5.6c-23,0-46.1,0-69.1,0
	c-4.9,0-7.5,2.1-7.5,5.7c0,3.6,2.5,5.5,7.6,5.5C66.8,159.2,78.3,159.2,89.9,159.2z"/>
<path class="st0" d="M214.2,212.4c0.2,0.7,0.5,1.8,1,2.7c10,21.5,20,43,30.1,64.6c1.3,2.8,3.3,4.5,6.6,3.9c3.6-0.6,5.6-4.2,3.9-7.9
	c-10.1-22-20.4-43.9-30.6-65.8c-1.4-3-3.9-4-7-3.1C215.6,207.5,214.5,209.5,214.2,212.4z"/>
</svg>
