<?xml version="1.0" encoding="utf-8"?>
<!-- Generator: Adobe Illustrator 22.0.1, SVG Export Plug-In . SVG Version: 6.00 Build 0)  -->
<svg version="1.1" id="Camada_1" xmlns="http://www.w3.org/2000/svg" xmlns:xlink="http://www.w3.org/1999/xlink" x="0px" y="0px"
	 width="25px" height="25px" viewBox="0 0 25 25" style="enable-background:new 0 0 25 25;" xml:space="preserve">
<style type="text/css">
	.st0{fill:#E11B22;}
</style>
<path class="st0" d="M12.6,3.4c-5,0-9.1,4-9.1,9c0,5,4,9.1,8.9,9.1c5.2,0,9.2-3.9,9.2-9.2C21.6,7.5,17.5,3.4,12.6,3.4z M18.8,8
	c0,0.3-0.2,0.6-0.4,0.9c-1.4,2-2.8,3.9-4.2,5.9c-0.8,1.1-1.5,2.1-2.3,3.2c-0.4,0.5-0.8,0.5-1.2,0c-1.2-1.5-2.4-3-3.5-4.5
	c-0.2-0.3-0.4-0.6-0.6-0.9c-0.2-0.3-0.2-0.6,0.1-0.9c0.1-0.2,0.3-0.3,0.5-0.5c0.5-0.4,0.8-0.5,1.3-0.1c0.6,0.5,1.2,1,1.7,1.5
	c0.3,0.3,0.6,0.5,0.9,0.8c0.2,0.1,0.2,0.2,0.4,0c1.8-2.1,3.7-4.2,5.5-6.2c0.4-0.5,0.6-0.5,1.1-0.1c0.2,0.1,0.4,0.3,0.6,0.5
	C18.7,7.6,18.8,7.8,18.8,8z"/>
<path class="st0" d="M24.7,12.7c-0.3-0.4-0.6-0.8-0.8-1.1c-0.3-0.4-0.3-0.7-0.1-1.2c0.2-0.4,0.4-0.9,0.6-1.3c0.3-0.9,0-1.6-0.8-2
	c-0.4-0.2-0.9-0.4-1.3-0.6c-0.4-0.2-0.6-0.5-0.7-0.9c0-0.5-0.1-1-0.1-1.5c-0.1-0.8-0.6-1.4-1.4-1.5c-0.5-0.1-1.1,0-1.6,0
	c-0.5,0-0.9-0.1-1.2-0.6c-0.2-0.4-0.5-0.7-0.7-1.1C16,0,15.2-0.2,14.3,0.3c-0.4,0.2-0.8,0.4-1.1,0.7c-0.4,0.2-0.8,0.3-1.2,0
	c-0.4-0.2-0.8-0.4-1.2-0.7C9.8-0.2,9.1,0,8.5,0.8C8.2,1.1,8,1.5,7.7,1.9c-0.2,0.4-0.5,0.6-1,0.6c-0.3,0-1.1-0.1-1.3-0.1c0,0,0,0,0,0
	c-0.1,0-0.1,0-0.2,0C4.3,2.4,3.7,3,3.6,4c0,0.4-0.1,0.8-0.1,1.2c0,0.5-0.3,0.8-0.7,1.1C2.3,6.5,1.9,6.7,1.5,6.9
	C0.7,7.4,0.4,8.2,0.8,9c0.2,0.4,0.4,0.9,0.5,1.3c0.2,0.4,0.1,0.9-0.2,1.2c-0.3,0.3-0.5,0.7-0.8,1.1c-0.5,0.8-0.4,1.6,0.3,2.3
	c0.4,0.3,0.7,0.6,1.1,0.9c0.3,0.3,0.5,0.6,0.4,1.1c-0.1,0.5-0.1,1-0.2,1.5c-0.1,0.9,0.4,1.6,1.3,1.9c0.4,0.1,0.8,0.2,1.3,0.3
	c0.5,0.1,0.8,0.4,0.9,0.8c0.2,0.5,0.3,1,0.5,1.4c0.3,0.8,1,1.2,1.9,1c0.5-0.1,0.9-0.2,1.4-0.4c0.4-0.1,0.8-0.1,1.2,0.3
	c0.3,0.3,0.7,0.7,1.1,1c0.7,0.6,1.5,0.6,2.2,0c0.3-0.3,0.7-0.6,1-1c0.4-0.4,0.8-0.5,1.3-0.3c0.4,0.1,0.9,0.3,1.3,0.4
	c0.9,0.2,1.6-0.2,1.9-1c0.2-0.4,0.3-0.9,0.5-1.3c0.1-0.4,0.4-0.7,0.9-0.8c0.4-0.1,0.9-0.2,1.3-0.3c0.9-0.2,1.3-0.8,1.3-1.7
	c0-0.5-0.1-1-0.2-1.6c-0.1-0.5,0.1-0.8,0.4-1.1c0.4-0.3,0.7-0.6,1.1-0.9C25.1,14.3,25.2,13.5,24.7,12.7z M12.5,22.3
	c-5.4,0-9.8-4.4-9.8-9.8s4.4-9.8,9.8-9.8s9.8,4.4,9.8,9.8S17.9,22.3,12.5,22.3z"/>
</svg>
