<?xml version="1.0" encoding="utf-8"?>
<!-- Generator: Adobe Illustrator 22.0.1, SVG Export Plug-In . SVG Version: 6.00 Build 0)  -->
<svg version="1.1" id="Camada_1" xmlns="http://www.w3.org/2000/svg" xmlns:xlink="http://www.w3.org/1999/xlink" x="0px" y="0px"
	 width="60px" height="60px" viewBox="0 0 60 60" style="enable-background:new 0 0 60 60;" xml:space="preserve">
<style type="text/css">
	.st0{fill:#A80A0F;}
</style>
<g>
	<path class="st0" d="M60,47.5H0v-8.8C0,33.9,3.9,30,8.8,30h42.5c4.8,0,8.8,3.9,8.8,8.8V47.5z M2.5,45h55v-6.3
		c0-3.4-2.8-6.3-6.3-6.3H8.8c-3.4,0-6.3,2.8-6.3,6.3V45z"/>
</g>
<rect x="2.5" y="48.8" class="st0" width="7.5" height="2.5"/>
<rect x="50" y="48.8" class="st0" width="7.5" height="2.5"/>
<g>
	<path class="st0" d="M15,28.8v-7.3c0-1,0.8-1.9,1.9-1.9h6.2c1,0,1.9,0.8,1.9,1.9v7.3h2.5v-7.3c0-2.4-2-4.4-4.4-4.4h-6.2
		c-2.4,0-4.4,2-4.4,4.4v7.3H15z"/>
</g>
<g>
	<path class="st0" d="M35,28.8v-7.3c0-1,0.8-1.9,1.9-1.9h6.2c1,0,1.9,0.8,1.9,1.9v7.3h2.5v-7.3c0-2.4-2-4.4-4.4-4.4h-6.2
		c-2.4,0-4.4,2-4.4,4.4v7.3H35z"/>
</g>
<g>
	<path class="st0" d="M5,28.8v-9.5c0-4.4,3.6-8,8-8h34c4.4,0,8,3.6,8,8v9.5h2.5v-9.5c0-5.8-4.7-10.5-10.5-10.5H13
		c-5.8,0-10.5,4.7-10.5,10.5v9.5H5z"/>
</g>
</svg>
