<?xml version="1.0" encoding="utf-8"?>
<!-- Generator: Adobe Illustrator 22.0.1, SVG Export Plug-In . SVG Version: 6.00 Build 0)  -->
<svg version="1.1" id="Camada_1" xmlns="http://www.w3.org/2000/svg" xmlns:xlink="http://www.w3.org/1999/xlink" x="0px" y="0px"
	 width="60px" height="60px" viewBox="0 0 60 60" style="enable-background:new 0 0 60 60;" xml:space="preserve">
<style type="text/css">
	.st0{fill:#A80A0F;}
</style>
<path class="st0" d="M58.4,23.7c-5.7,0-11.3,0-17,0c-0.4,0-0.6-0.1-0.6-0.6c0-2.7,0-5.4,0-8.1c0-1.5-0.7-2.1-2.2-2.1
	c-4.3,0-8.6,0-13,0c-0.4,0-0.6-0.1-0.9-0.3c-4.1-2.7-8.2-5.5-12.3-8.2c-1.3-0.9-2.4-0.6-3,0.9C7,10.8,4.5,16.3,2,21.7
	c-0.1,0.3-0.3,0.6-0.5,0.9c-1.2,1.5-1.8,3.1-2,5c-0.2,3.7,1.8,7.1,5,8.7c3.3,1.6,7.2,1,9.9-1.4c1.1-1,1.1-2,0.1-3
	c-2.9-2.9-5.8-5.8-8.7-8.7c-0.3-0.3-0.3-0.5-0.1-0.8C6.4,20.8,7,19.4,7.7,18c1.4-3.2,2.9-6.3,4.3-9.5c0.1,0,0.1,0.1,0.2,0.1
	c3.3,2.2,6.6,4.4,9.9,6.6c0.3,0.2,0.3,0.3,0.1,0.6c-1.5,2.9-2.9,5.8-4.4,8.7c-0.2,0.5-0.3,0.9-0.3,1.5c0,3.3,0,6.7,0,10
	c0,1.5,0.6,2.2,2.2,2.2c6.9,0,13.7,0,20.6,0c6.1,0,12.1,0,18.2,0c1.3,0,2-0.7,2-2c0-3.4,0-6.8,0-10.2C60.5,24.4,59.8,23.7,58.4,23.7
	z M10.7,33.1c-1.6,1-4.2,0.6-5.8-0.9C3.1,30.6,2.6,28,3.6,26C6,28.3,8.4,30.7,10.7,33.1z M37.2,25.5c0,2.8,0,5.7,0,8.5
	c0,0.4-0.1,0.5-0.5,0.5c-5.1,0-10.2,0-15.2,0c-0.3,0-0.4-0.1-0.4-0.4c0-2.6,0-5.2,0-7.8c0-0.2,0.1-0.5,0.2-0.7
	c1.4-2.9,2.9-5.8,4.3-8.6c0.1-0.3,0.3-0.4,0.7-0.4c3.5,0,7,0,10.5,0c0.4,0,0.5,0.1,0.5,0.5C37.2,19.9,37.2,22.7,37.2,25.5z M56.9,34
	c0,0.4-0.1,0.5-0.5,0.5c-2.5,0-5.1,0-7.6,0c-2.5,0-5,0-7.6,0c-0.4,0-0.5-0.1-0.5-0.5c0-2.1,0-4.1,0-6.2c0-0.3,0-0.5,0.4-0.5
	c5.1,0,10.2,0,15.2,0c0.4,0,0.5,0.1,0.5,0.5C56.9,29.8,56.9,31.9,56.9,34z"/>
<path class="st0" d="M54,46.3c-0.9-3.8-4.1-6.4-8-6.4c-5.3,0-10.7,0-16,0c-5.3,0-10.5,0-15.8,0c-0.5,0-1,0-1.5,0.1
	C8.2,40.5,5,45.1,6,49.6C6.8,53.4,10.1,56,14,56c10.6,0,21.3,0,31.9,0c0.4,0,0.8,0,1.2-0.1C51.8,55.4,55,50.8,54,46.3z M46,52.4
	c-1.2,0-2.3,0-3.5,0c-9.5,0-18.9,0-28.4,0c-2.2,0-3.9-1.2-4.6-3.1c-0.9-2.9,1.2-5.8,4.4-5.9c5.3,0,10.7,0,16,0c5.3,0,10.7,0,16,0
	c2.6,0,4.7,2,4.6,4.6C50.6,50.5,48.6,52.4,46,52.4z"/>
<path class="st0" d="M48.8,47.9c0,1.5-1.2,2.7-2.7,2.7c-1.5,0-2.7-1.2-2.7-2.7c0-1.5,1.2-2.7,2.7-2.7C47.6,45.2,48.8,46.4,48.8,47.9
	z"/>
<path class="st0" d="M13.9,45.2c1.5,0,2.7,1.2,2.7,2.7c0,1.5-1.2,2.7-2.7,2.7c-1.5,0-2.7-1.2-2.7-2.7C11.2,46.4,12.4,45.2,13.9,45.2
	z"/>
<path class="st0" d="M38.1,47.9c0,1.5-1.2,2.7-2.7,2.7c-1.5,0-2.7-1.2-2.7-2.7c0-1.5,1.2-2.7,2.7-2.7C36.9,45.3,38.1,46.5,38.1,47.9
	z"/>
<path class="st0" d="M24.6,45.2c1.5,0,2.7,1.2,2.7,2.7c0,1.5-1.2,2.7-2.7,2.7c-1.5,0-2.7-1.2-2.7-2.7C21.9,46.4,23.1,45.2,24.6,45.2
	z"/>
</svg>
