<?xml version="1.0" encoding="utf-8"?>
<!-- Generator: Adobe Illustrator 22.0.1, SVG Export Plug-In . SVG Version: 6.00 Build 0)  -->
<svg version="1.1" id="Camada_1" xmlns="http://www.w3.org/2000/svg" xmlns:xlink="http://www.w3.org/1999/xlink" x="0px" y="0px"
	 width="60px" height="60px" viewBox="0 0 60 60" style="enable-background:new 0 0 60 60;" xml:space="preserve">
<style type="text/css">
	.st0{fill:#A80A0F;}
</style>
<g>
	<path class="st0" d="M0.9,43.1c-0.5,0-0.9-0.4-0.9-0.9v-5.9l21.2-19.2l23.1,17.4v6h13.8c0.5,0,0.9,0.4,0.9,0.9
		c0,0.5-0.4,0.9-0.9,0.9H42.5v-6.9L21.3,19.3L1.8,37v5.1C1.8,42.6,1.4,43.1,0.9,43.1z"/>
</g>
<g>
	<path class="st0" d="M59.1,36.6c-0.5,0-0.9-0.4-0.9-0.9v-6.9l-8.3-6.7L43,27.2c-0.4,0.3-1,0.2-1.3-0.2c-0.3-0.4-0.2-1,0.2-1.3l8-6
		L60,27.8v7.8C60,36.2,59.6,36.6,59.1,36.6z"/>
</g>
<rect x="17.5" y="32.9" class="st0" width="3.7" height="3.7"/>
<rect x="23.1" y="32.9" class="st0" width="3.7" height="3.7"/>
<rect x="17.5" y="38.4" class="st0" width="3.7" height="3.7"/>
<rect x="23.1" y="38.4" class="st0" width="3.7" height="3.7"/>
<rect x="47.1" y="27.4" class="st0" width="2.2" height="2.2"/>
<rect x="50.4" y="27.4" class="st0" width="2.2" height="2.2"/>
<rect x="47.1" y="30.7" class="st0" width="2.2" height="2.2"/>
<rect x="50.4" y="30.7" class="st0" width="2.2" height="2.2"/>
</svg>
